<svg width="512" height="512" viewBox="0 0 512 512" fill="none" xmlns="http://www.w3.org/2000/svg">
<rect width="512" height="512" rx="96" fill="#191970"/>
<g transform="scale(16) translate(4, 4)">
<path d="M4.5 16.5c-1.5 1.26-2 5-2 5s3.74-.5 5-2c.71-.84.7-2.3.09-3.1a2.18 2.18 0 0 0-3.09-.09z" stroke="#F9FAFC" stroke-width="1.5" stroke-linecap="round" stroke-linejoin="round"/>
<path d="M12 15.5L15 12.5L16.5 11L21 6L18 3L12.5 4.5L11.5 6L8.5 9L4.5 16.5" stroke="#F9FAFC" stroke-width="1.5" stroke-linecap="round" stroke-linejoin="round"/>
<path d="m14.5 4.5 1.5 1.5" stroke="#F9FAFC" stroke-width="1.5" stroke-linecap="round" stroke-linejoin="round"/>
<path d="M12.5 6.5L14 8L15 9.5L17.5 12L19.5 14" stroke="#F9FAFC" stroke-width="1.5" stroke-linecap="round" stroke-linejoin="round"/>
<path d="M18 10.5L20 12.5" stroke="#F9FAFC" stroke-width="1.5" stroke-linecap="round" stroke-linejoin="round"/>
<path d="m4.5 16.5 4.5-4.5" stroke="#F9FAFC" stroke-width="1.5" stroke-linecap="round" stroke-linejoin="round"/>
</g>
</svg>
